<?xml version="1.0" standalone="no"?>
<!DOCTYPE svg PUBLIC "-//W3C//DTD SVG 20010904//EN"
 "http://www.w3.org/TR/2001/REC-SVG-20010904/DTD/svg10.dtd">
<svg version="1.0" xmlns="http://www.w3.org/2000/svg"
 width="500.000000pt" height="500.000000pt" viewBox="0 0 500.000000 500.000000"
 preserveAspectRatio="xMidYMid meet">
<metadata>
Created by potrace 1.14, written by Peter Selinger 2001-2017
</metadata>
<g transform="translate(0.000000,500.000000) scale(0.100000,-0.100000)"
fill="#000000" stroke="none">
<path d="M0 2500 l0 -2500 2500 0 2500 0 0 2500 0 2500 -2500 0 -2500 0 0
-2500z m2275 1967 l150 -12 9 -146 8 -146 57 -13 c61 -13 210 -67 291 -104
l52 -24 95 104 c52 57 98 104 102 104 6 0 305 -202 319 -215 2 -2 -26 -61 -62
-132 l-65 -130 70 -69 c39 -38 102 -110 140 -161 63 -83 72 -91 92 -84 13 5
74 25 136 44 l113 36 84 -176 c46 -96 84 -177 84 -179 0 -3 -187 -128 -237
-159 -2 -1 4 -25 13 -54 8 -29 14 -54 12 -56 -2 -2 -70 -4 -152 -6 l-148 -4
-33 92 c-66 184 -166 343 -310 492 -119 123 -224 203 -360 276 -367 195 -822
218 -1230 60 -106 -41 -228 -113 -233 -138 -5 -27 41 -117 92 -179 l46 -57 50
6 c33 4 55 2 65 -7 12 -10 26 -6 79 26 61 37 64 40 59 71 -7 43 40 93 87 93
37 0 90 -47 90 -79 0 -64 -57 -111 -112 -92 -33 12 -44 8 -114 -40 -37 -25
-40 -31 -40 -70 l1 -43 110 -78 c61 -43 148 -106 195 -140 l85 -63 73 0 c40
-1 76 3 78 7 26 41 331 206 437 235 41 12 57 21 57 33 0 10 12 29 26 44 39 38
93 36 128 -5 41 -49 29 -106 -29 -134 -43 -20 -46 -19 -87 9 l-34 23 -70 -23
c-94 -32 -232 -103 -333 -172 l-84 -57 0 -55 c-1 -51 3 -60 48 -118 66 -85
129 -192 162 -274 21 -54 31 -68 47 -68 12 0 27 -4 35 -9 10 -7 31 3 70 33
155 118 353 212 575 271 49 14 91 26 93 29 11 10 -40 155 -87 251 -133 270
-378 469 -685 556 -68 19 -108 23 -265 26 l-185 2 -138 54 c-75 30 -140 56
-142 59 -8 8 163 57 255 73 47 8 137 15 200 15 203 0 377 -39 555 -124 339
-163 582 -454 680 -818 l18 -67 31 7 c17 4 169 7 339 7 285 0 308 1 313 18 9
27 61 50 100 43 44 -9 84 -57 84 -103 0 -83 -109 -125 -169 -65 -15 15 -30 34
-32 41 -8 23 -239 33 -463 21 -104 -6 -191 -12 -193 -14 -2 -1 2 -50 8 -107 6
-57 9 -126 7 -154 l-3 -50 175 -16 c300 -28 658 -91 899 -158 l67 -19 27 24
c36 31 94 32 126 3 50 -47 50 -111 -1 -154 -55 -47 -138 -22 -156 48 -7 27
-14 33 -61 44 -29 8 -55 12 -58 10 -2 -3 -7 -44 -10 -92 l-6 -87 -116 7 c-64
4 -119 10 -123 13 -3 4 -2 54 4 111 5 57 7 105 5 108 -21 20 -601 103 -724
103 l-52 0 -7 -37 c-12 -72 -45 -195 -69 -258 l-24 -64 212 -3 212 -3 31 33
c43 44 102 46 145 3 40 -40 40 -89 0 -133 -24 -27 -36 -33 -70 -32 -45 2 -77
23 -92 62 -7 19 -16 22 -67 22 -32 0 -133 3 -224 7 l-166 6 -21 -41 -21 -42
-68 -2 c-74 -2 -155 1 -161 7 -2 2 7 18 19 35 12 17 21 32 19 34 -2 1 -115 0
-251 -4 -231 -5 -248 -7 -262 -25 -14 -20 -16 -19 -100 22 -47 24 -86 47 -86
52 0 5 14 21 31 35 30 26 31 28 24 89 -17 147 -33 145 -172 -13 l-30 -34 -65
42 -65 43 -5 74 c-4 60 -12 90 -42 149 -162 328 -623 322 -778 -11 -77 -163
-31 -381 106 -501 85 -75 215 -117 325 -106 56 6 57 6 149 -54 50 -33 96 -62
103 -64 7 -2 -10 -46 -44 -115 -47 -92 -54 -113 -44 -127 11 -16 20 -15 107 8
52 13 138 34 191 46 l95 22 150 -72 c268 -130 637 -300 661 -306 55 -14 90
-94 62 -145 -9 -18 -20 -20 -102 -19 -174 2 -396 -54 -577 -145 -156 -78 -317
-198 -412 -306 -29 -32 -55 -59 -58 -59 -3 0 -38 44 -77 98 -91 125 -191 224
-260 258 l-54 27 -30 -37 c-27 -31 -36 -36 -74 -36 -26 0 -51 7 -65 18 -21 17
-24 16 -103 -23 -64 -31 -96 -40 -148 -43 -59 -4 -68 -2 -97 23 -18 15 -39 40
-47 56 -24 45 -53 180 -66 307 -12 114 -13 118 -49 158 -46 51 -56 89 -36 138
15 37 15 37 -12 46 -46 17 -56 25 -75 61 -12 24 -15 46 -11 75 9 64 -22 84
-161 99 -80 8 -123 23 -135 45 -16 31 -11 124 11 196 11 38 52 145 91 239 64
154 69 173 59 201 -14 38 -14 87 -1 100 7 7 2 28 -15 66 -37 82 -55 178 -55
305 0 241 78 495 218 708 57 87 214 249 304 317 37 27 68 56 68 63 0 7 -18 68
-40 136 -21 68 -37 126 -34 129 3 3 83 42 177 86 l172 82 77 -119 c43 -65 80
-119 82 -119 3 0 47 11 98 25 105 28 293 66 309 62 11 -2 18 20 54 186 l17 77
47 -1 c25 0 114 -6 196 -12z m1405 -1811 c0 -40 -3 -95 -7 -121 l-6 -47 -81 7
c-45 3 -84 10 -87 13 -4 4 -9 53 -13 109 l-6 102 42 4 c24 2 69 4 101 5 l57 2
0 -74z m299 68 l62 -7 -7 -101 c-3 -56 -7 -102 -8 -103 -4 -5 -198 15 -203 20
-2 3 -1 48 3 101 l7 96 42 0 c23 0 70 -3 104 -6z m-2193 -155 c126 -63 196
-173 202 -317 l4 -82 84 -55 c248 -164 529 -289 774 -346 109 -26 350 -36 445
-20 37 7 69 11 70 9 1 -2 -3 -70 -11 -153 -7 -82 -13 -155 -14 -161 0 -7 55
-15 158 -23 86 -7 171 -15 187 -18 l30 -6 -45 -19 c-112 -48 -212 -62 -445
-62 -191 -1 -234 2 -323 22 -367 80 -722 237 -1092 481 -85 56 -85 56 -134 47
-33 -7 -70 -6 -119 2 -125 22 -222 96 -276 211 -23 49 -26 68 -26 161 0 90 4
112 24 153 49 99 148 181 254 208 18 4 67 7 111 4 64 -3 90 -9 142 -36z m1813
-245 c2 -2 0 -53 -4 -113 l-7 -111 -72 0 -72 0 19 98 c10 53 21 107 23 119 4
20 8 22 57 16 28 -3 54 -7 56 -9z m326 -3 c19 -1 20 -5 13 -78 -3 -43 -7 -88
-7 -101 -1 -24 -9 -24 -159 -6 l-42 5 5 57 c3 31 8 75 11 97 l5 40 77 -7 c42
-3 86 -7 97 -7z m-475 -389 c0 -6 -24 -21 -83 -50 -5 -2 -1 10 7 27 13 24 23
31 46 31 17 0 30 -3 30 -8z m798 -49 l34 -6 -6 -51 c-3 -28 -8 -88 -12 -134
-6 -69 -9 -82 -23 -78 -9 3 -69 8 -135 12 l-118 7 6 71 c3 39 9 100 12 135 l7
63 101 -6 c55 -4 116 -10 134 -13z m-645 -85 l147 -11 0 -38 c0 -37 -20 -292
-23 -296 -1 -1 -72 5 -157 12 -85 8 -160 14 -165 15 -7 0 -6 47 2 143 6 78 12
152 12 165 1 26 -7 26 184 10z"/>
<path d="M3035 2699 c-55 -17 -147 -50 -205 -75 -106 -44 -295 -155 -339 -199
l-23 -23 43 8 c82 15 353 39 518 46 l164 7 -6 116 c-3 64 -9 124 -12 134 -9
22 -20 21 -140 -14z"/>
<path d="M2860 2399 c-69 -4 -179 -14 -245 -23 -65 -9 -124 -16 -131 -16 -6 0
-17 -13 -24 -29 -6 -16 -20 -37 -29 -45 -15 -14 -17 -24 -10 -64 5 -26 11 -64
14 -84 4 -25 13 -41 28 -49 12 -6 31 -22 42 -35 l20 -23 269 6 269 6 27 61
c33 73 75 204 84 264 l6 42 -97 -1 c-54 -1 -154 -5 -223 -10z"/>
<path d="M1552 2384 c-101 -52 -121 -183 -39 -261 108 -103 279 -21 265 127
-5 54 -36 103 -79 125 -46 24 -109 28 -147 9z"/>
</g>
</svg>
