<?xml version="1.0" standalone="no"?>
<!DOCTYPE svg PUBLIC "-//W3C//DTD SVG 20010904//EN"
 "http://www.w3.org/TR/2001/REC-SVG-20010904/DTD/svg10.dtd">
<svg version="1.0" xmlns="http://www.w3.org/2000/svg"
 width="500.000000pt" height="500.000000pt" viewBox="0 0 500.000000 500.000000"
 preserveAspectRatio="xMidYMid meet">
<metadata>
Created by potrace 1.14, written by Peter Selinger 2001-2017
</metadata>
<g transform="translate(0.000000,500.000000) scale(0.100000,-0.100000)"
fill="#000000" stroke="none">
<path d="M0 2500 l0 -2500 2500 0 2500 0 0 2500 0 2500 -2500 0 -2500 0 0
-2500z m2388 1390 l42 0 0 -44 c0 -96 2 -98 107 -135 l95 -33 47 46 c26 25 50
46 55 46 14 0 146 -95 145 -105 0 -5 -13 -35 -28 -65 l-29 -55 47 -50 c25 -27
56 -63 68 -80 l21 -30 66 22 67 21 39 -79 c22 -43 40 -83 40 -87 0 -5 -25 -26
-56 -46 -51 -34 -55 -39 -49 -67 l7 -29 -75 0 -74 0 -13 45 c-33 116 -168 280
-296 358 -192 116 -468 129 -672 30 -40 -20 -75 -40 -78 -44 -6 -10 27 -75 53
-104 33 -38 143 -17 143 27 0 17 25 48 39 48 4 0 15 -6 26 -13 13 -10 16 -21
11 -40 -5 -22 -12 -27 -37 -27 -43 0 -89 -29 -89 -56 0 -17 25 -41 97 -93 114
-83 140 -88 208 -41 47 32 163 90 181 90 6 0 20 11 32 25 29 34 62 32 74 -5
13 -38 -40 -68 -69 -39 -14 14 -111 -25 -193 -77 -71 -46 -77 -73 -31 -132 16
-20 43 -65 61 -99 17 -34 38 -63 48 -65 9 -2 54 20 98 48 74 46 219 104 260
104 13 0 15 6 10 33 -13 69 -69 161 -140 233 -108 107 -223 154 -379 154 -54
0 -88 7 -140 27 l-69 27 44 14 c73 24 258 27 336 7 201 -53 357 -200 427 -402
l23 -65 162 2 c127 1 167 4 186 16 30 20 62 10 70 -23 13 -52 -62 -79 -87 -32
-9 17 -23 19 -164 19 -84 0 -156 -3 -158 -7 -3 -5 -2 -43 0 -85 l6 -78 41 0
c58 0 292 -36 411 -63 91 -20 103 -21 127 -8 24 14 28 14 47 -3 25 -23 27 -43
4 -68 -23 -26 -44 -23 -73 11 -14 16 -35 32 -47 36 -22 6 -23 3 -23 -39 l0
-46 -61 0 -61 0 7 58 7 59 -104 16 c-146 24 -271 38 -277 32 -2 -3 -13 -36
-22 -73 -10 -37 -21 -77 -25 -89 -6 -23 -5 -23 99 -23 81 0 107 3 117 15 17
20 66 19 74 -1 11 -29 6 -53 -13 -64 -28 -15 -38 -13 -61 12 -18 20 -33 23
-125 26 -97 4 -104 3 -117 -17 -10 -17 -23 -21 -66 -21 -51 0 -52 1 -41 22
l11 21 -128 -7 c-71 -4 -130 -11 -132 -16 -4 -11 -82 26 -82 39 0 5 6 13 13
19 18 15 9 82 -11 89 -10 4 -26 -7 -47 -32 l-32 -38 -32 19 c-24 14 -31 25
-31 49 0 17 -11 54 -25 82 -54 108 -182 147 -294 89 -115 -61 -140 -236 -45
-329 42 -42 80 -59 148 -65 45 -4 72 -13 103 -34 l42 -29 -26 -54 c-15 -30
-24 -58 -20 -61 4 -4 49 2 100 14 l94 22 208 -98 c115 -54 213 -105 218 -113
20 -32 1 -49 -56 -49 -139 0 -314 -74 -432 -182 l-73 -68 -37 50 c-42 58 -121
130 -142 130 -8 0 -21 -7 -29 -15 -17 -16 -60 -20 -68 -6 -3 5 -33 -2 -67 -16
-100 -41 -126 -15 -149 147 -9 59 -19 92 -33 107 -14 16 -18 30 -14 51 5 24 2
31 -19 40 -13 7 -24 20 -25 29 -1 10 -2 27 -3 38 -1 24 -40 45 -83 45 -19 0
-41 8 -53 20 -25 25 -20 54 35 192 27 67 39 111 34 120 -5 7 -6 21 -3 31 3 9
-2 41 -12 70 -22 65 -22 181 0 268 28 113 82 206 165 290 42 42 84 81 94 86
16 8 16 12 -3 68 -11 32 -20 62 -20 66 0 7 151 89 163 89 2 0 21 -25 41 -56
34 -50 40 -56 64 -50 15 4 63 14 107 24 l79 17 8 40 c19 95 13 88 71 81 29 -3
71 -6 95 -6z m652 -906 l0 -55 -42 3 -43 3 -3 53 -3 52 45 0 46 0 0 -56z m180
44 c0 -7 -3 -30 -6 -50 -6 -36 -9 -38 -43 -38 -53 0 -61 9 -54 58 l6 42 48 0
c33 0 49 -4 49 -12z m-1100 -67 c50 -26 89 -86 96 -147 6 -48 9 -52 63 -86 86
-57 240 -126 327 -148 78 -20 221 -29 262 -16 20 7 20 4 16 -51 -3 -32 -6 -68
-8 -80 -4 -28 10 -33 89 -33 139 0 50 -38 -110 -47 -198 -11 -455 73 -690 225
-58 37 -77 45 -112 43 -47 -2 -106 19 -142 52 -54 50 -68 152 -28 221 43 76
159 109 237 67z m880 -166 l0 -55 -36 0 c-29 0 -34 3 -30 18 3 9 8 34 12 55 5
31 10 37 30 37 22 0 24 -4 24 -55z m148 45 c18 0 22 -6 22 -29 0 -52 -8 -61
-56 -61 -48 0 -51 5 -38 70 6 26 10 31 28 26 12 -3 31 -6 44 -6z m-228 -194
c0 -2 -7 -7 -16 -10 -8 -3 -12 -2 -9 4 6 10 25 14 25 6z m373 -16 l37 0 0 -52
c0 -75 -6 -81 -74 -73 l-56 7 0 48 c0 66 8 83 34 76 11 -3 38 -6 59 -6z m-267
-46 l51 -6 -5 -72 c-2 -39 -7 -74 -11 -78 -3 -4 -39 -5 -79 -1 l-72 6 0 41 c0
23 3 58 6 79 7 41 12 42 110 31z m-1118 -891 c14 -11 32 -34 39 -51 l13 -32
-35 0 c-20 0 -35 5 -35 12 0 43 -79 63 -119 31 -26 -21 -42 -81 -34 -129 12
-73 84 -108 131 -64 32 30 28 50 -8 50 -25 0 -30 4 -30 25 0 24 3 25 60 25
l60 0 0 -80 c0 -79 0 -80 -25 -80 -19 0 -25 5 -25 21 0 21 0 21 -19 -2 -25
-31 -108 -32 -149 -3 -60 45 -81 153 -44 224 38 73 156 101 220 53z m372 -8
c0 -24 -2 -25 -75 -25 l-75 0 0 -40 0 -40 70 0 c68 0 70 -1 70 -25 0 -24 -2
-25 -70 -25 l-70 0 0 -40 0 -40 80 0 c79 0 80 0 80 -25 l0 -25 -115 0 -115 0
0 155 0 155 110 0 110 0 0 -25z m257 -95 l63 -115 0 118 0 117 30 0 30 0 0
-155 0 -155 -42 0 -43 0 -60 113 -60 112 -3 -112 -3 -113 -29 0 -30 0 0 156 0
155 43 -3 42 -3 62 -115z m461 98 c-3 -21 -9 -23 -80 -26 l-78 -3 0 -39 0 -40
70 0 c68 0 70 -1 70 -25 0 -24 -2 -25 -70 -25 l-70 0 0 -40 0 -40 80 0 c79 0
80 0 80 -25 l0 -25 -110 0 -110 0 0 155 0 155 111 0 c109 0 110 0 107 -22z
m323 -7 c28 -35 25 -85 -7 -110 -26 -20 -26 -22 -10 -40 9 -10 20 -36 23 -57
3 -22 10 -47 15 -56 7 -16 4 -18 -26 -18 -31 0 -36 4 -42 28 -17 79 -25 91
-59 98 -19 3 -38 3 -44 -1 -6 -3 -11 -33 -11 -66 0 -59 0 -59 -30 -59 l-30 0
0 156 0 156 101 -4 c92 -3 103 -5 120 -27z m-813 -471 c24 -43 29 -60 18 -60
-7 0 -16 7 -20 15 -3 9 -19 15 -41 15 -22 0 -38 -6 -41 -15 -4 -8 -12 -15 -20
-15 -11 0 -6 16 16 60 17 33 36 60 43 60 6 0 27 -27 45 -60z m92 0 c0 -33 -4
-60 -10 -60 -6 0 -10 27 -10 60 0 33 4 60 10 60 6 0 10 -27 10 -60z"/>
<path d="M2700 3021 c-68 -21 -185 -82 -225 -117 -29 -25 -30 -25 -5 -20 14 3
93 11 177 18 106 8 154 16 157 25 3 7 2 35 -1 63 -7 58 -13 60 -103 31z"/>
<path d="M2550 2878 c-74 -8 -88 -12 -107 -35 -26 -32 -21 -86 10 -121 20 -22
26 -22 156 -20 l136 3 22 55 c12 30 24 72 28 93 l7 37 -83 -1 c-46 -1 -122 -6
-169 -11z"/>
<path d="M1982 2857 c-42 -45 -20 -119 38 -132 53 -12 108 41 96 91 -16 63
-92 86 -134 41z"/>
<path d="M3160 1615 c0 -45 0 -45 36 -45 62 0 95 31 74 71 -8 15 -22 19 -60
19 l-50 0 0 -45z"/>
<path d="M2451 1232 c-17 -32 -13 -42 14 -42 28 0 30 5 11 39 -13 24 -14 24
-25 3z"/>
</g>
</svg>
